<svg width="159" height="39" viewBox="0 0 159 39" fill="none" xmlns="http://www.w3.org/2000/svg">
<g clip-path="url(#clip0)">
<path d="M0 24V18.1667L13.4136 9V14.8333L0 24Z" fill="white" stroke="white"/>
<path d="M13.4137 27.6V33L3.83252 26.7L8.18759 24L13.4137 27.6Z" fill="white" stroke="white"/>
<path d="M29.7016 0H25.2304L16.288 39H20.7592L29.7016 0Z" fill="white" stroke="white"/>
<path d="M30.6597 14.8333V9L45.9895 18.1667V24L30.6597 14.8333Z" fill="white" stroke="white"/>
<path d="M30.6597 34V27.6364L36.8076 24L41.1989 26.7273L30.6597 34Z" fill="white" stroke="white"/>
<path d="M52.15 31V6.5H62.475C65.2517 6.5 67.2583 7.18833 68.495 8.565C69.755 9.94167 70.385 11.6683 70.385 13.745C70.385 15.3083 69.93 16.7433 69.02 18.05C68.1333 19.3333 66.815 20.2083 65.065 20.675L70.105 31H65.94L61.11 20.99H55.79V31H52.15ZM55.79 17.49H62.545C63.945 17.49 64.9717 17.14 65.625 16.44C66.2783 15.7167 66.605 14.8183 66.605 13.745C66.605 12.7183 66.29 11.8433 65.66 11.12C65.0533 10.3733 64.015 10 62.545 10H55.79V17.49ZM85.5537 28.935C84.0837 30.5917 82.0887 31.42 79.5687 31.42C77.0487 31.42 75.0537 30.5917 73.5837 28.935C72.137 27.2783 71.4137 24.9917 71.4137 22.075C71.4137 19.1583 72.137 16.8717 73.5837 15.215C75.0537 13.535 77.0487 12.695 79.5687 12.695C82.0887 12.695 84.0837 13.535 85.5537 15.215C87.0237 16.8717 87.7587 19.1583 87.7587 22.075C87.7587 24.9917 87.0237 27.2783 85.5537 28.935ZM79.5687 27.99C80.9687 27.99 82.077 27.465 82.8937 26.415C83.7103 25.365 84.1187 23.9183 84.1187 22.075C84.1187 20.2317 83.7103 18.785 82.8937 17.735C82.077 16.6617 80.9687 16.125 79.5687 16.125C78.192 16.125 77.0953 16.6617 76.2787 17.735C75.462 18.785 75.0537 20.2317 75.0537 22.075C75.0537 23.895 75.462 25.3417 76.2787 26.415C77.0953 27.465 78.192 27.99 79.5687 27.99ZM111.047 31V20.29C111.047 17.5133 109.95 16.125 107.757 16.125C106.73 16.125 105.879 16.51 105.202 17.28C104.525 18.0267 104.187 19.0883 104.187 20.465V31H100.547V20.29C100.547 17.5133 99.4504 16.125 97.2571 16.125C96.2304 16.125 95.3787 16.51 94.7021 17.28C94.0254 18.0267 93.6871 19.0883 93.6871 20.465V31H90.0471V13.115H93.6871V14.76C94.6437 13.3833 96.1487 12.695 98.2021 12.695C100.419 12.695 102.005 13.5467 102.962 15.25C104.059 13.5467 105.82 12.695 108.247 12.695C110.184 12.695 111.735 13.255 112.902 14.375C114.092 15.495 114.687 17.1867 114.687 19.45V31H111.047ZM128.534 31V29.285C127.414 30.7083 125.874 31.42 123.914 31.42C119.621 31.42 117.474 28.8767 117.474 23.79V13.115H121.114V23.79C121.114 25.2133 121.441 26.275 122.094 26.975C122.748 27.6517 123.611 27.99 124.684 27.99C127.251 27.99 128.534 26.6133 128.534 23.86V13.115H132.174V31H128.534ZM142.584 31.42C140.088 31.42 138.104 30.5917 136.634 28.935C135.188 27.255 134.464 24.9567 134.464 22.04C134.464 19.1233 135.199 16.8367 136.669 15.18C138.139 13.5233 140.111 12.695 142.584 12.695C144.824 12.695 146.668 13.4067 148.114 14.83C149.561 16.2533 150.284 18.33 150.284 21.06C150.284 22.0633 150.238 22.845 150.144 23.405H138.104C138.128 24.8283 138.583 25.9833 139.469 26.87C140.379 27.7567 141.429 28.2 142.619 28.2C144.159 28.2 145.396 27.5933 146.329 26.38L148.709 28.83C147.263 30.5567 145.221 31.42 142.584 31.42ZM138.104 20.465H146.644C146.621 18.925 146.213 17.7817 145.419 17.035C144.626 16.2883 143.681 15.915 142.584 15.915C141.348 15.915 140.309 16.2883 139.469 17.035C138.653 17.7583 138.198 18.9017 138.104 20.465ZM152.555 31V7.445L156.195 5.73V31H152.555Z" fill="white"/>
</g>
<defs>
<clipPath id="clip0">
<rect width="159" height="39" fill="white"/>
</clipPath>
</defs>
</svg>
