<svg width="226" height="227" viewBox="0 0 226 227" fill="none" xmlns="http://www.w3.org/2000/svg">
<path d="M99.5 53H64V174.5C59.0275 187.862 53.578 193.075 40.5 199.5C36.7506 196.761 32.0834 193.145 24 183.5C20.8046 179.774 15.5893 170.698 11.3055 162.5C7.97806 156.066 5.23901 147.651 2.57952 135.5C0.611901 126.277 0.103641 114.831 0.999998 100C3.28342 81.9056 9.3215 65.5139 22.8329 44.9999C37.0105 28.7989 49.0237 19.4867 64 13C73.077 7.19446 87.9492 3.46161 108 1.5C125.735 1.08671 140.367 3.53005 150.5 7.99998C136.651 22.416 131.356 32.2502 126.5 53V174.5H163V53C169.246 40.6 173.988 34.8387 185.5 27.5C212.622 53.1489 218.93 69.4409 225 100C226.247 121.368 224.729 139.515 216.5 157.5C201.084 194.439 170.228 215.955 138.5 224C110.232 228.287 86.6694 224.688 76 220C92.8945 201.798 97.5117 191.866 99.5 174.5V53Z" fill="#805AD5" stroke="#6C63FF"/>
</svg>
